<?xml version="1.0" encoding="utf-8"?>
<!-- Svg Vector Icons : http://www.onlinewebfonts.com/icon -->
<!DOCTYPE svg PUBLIC "-//W3C//DTD SVG 1.1//EN" "http://www.w3.org/Graphics/SVG/1.1/DTD/svg11.dtd">
<svg version="1.1" xmlns="http://www.w3.org/2000/svg" xmlns:xlink="http://www.w3.org/1999/xlink" x="0px" y="0px" viewBox="0 0 1000 1000" enable-background="new 0 0 1000 1000" xml:space="preserve">
<metadata> Svg Vector Icons : http://www.onlinewebfonts.com/icon </metadata>
<g><g transform="translate(0.000000,511.000000) scale(0.100000,-0.100000)"><path d="M4031.5,2911.5c-3.8-13.4-141.8-392.8-306.5-841.1c-162.9-450.2-297-827.7-297-839.2c0-15.3,440.7-21.1,1571.1-21.1c1076.8,0,1571.1,5.7,1571.1,19.2c0,17.2-421.5,1189.8-574.8,1596l-40.2,109.2h-958C4248,2934.5,4037.2,2928.7,4031.5,2911.5z"/><path d="M2073.4,123.8C1901-347.5,1765-734.6,1768.8-738.4c1.9-3.8,712.7-3.8,1576.8-1.9l1573,5.7L4606.3,118l-310.4,852.6l-956,5.7l-956,3.8L2073.4,123.8z"/><path d="M5694.5,947.6c-7.7-19.2-149.4-404.3-314.2-858.3l-298.9-823.8l1571.1-5.7c864.1-1.9,1574.9-1.9,1576.8,1.9c3.8,3.8-132.2,390.9-304.6,862.2l-310.4,856.4h-954.1C5769.3,980.2,5706,978.3,5694.5,947.6z"/><path d="M408.5-1842L100-2688.8l1571.1-5.7c864.1-1.9,1574.9,0,1578.7,1.9c5.7,5.8-411.9,1164.9-582.5,1619l-30.6,80.5h-959.9H716.9L408.5-1842z"/><path d="M4031.5-1016.2C3901.2-1363,3428-2671.6,3428-2683.1c0-7.7,707-15.3,1571.1-15.3c864.1,0,1571.1,7.7,1571.1,15.3c0,7.7-136,390.9-304.6,848.8l-304.6,831.5L5001-997C4242.3-993.2,4037.2-997,4031.5-1016.2z"/><path d="M7051-1847.7c-172.4-469.4-308.5-858.3-302.7-862.2c3.8-3.8,714.6-5.8,1580.6-3.8L9900-2708l-310.4,852.6l-312.3,852.6l-956,5.7l-958,3.8L7051-1847.7z"/></g></g>
</svg>